<svg xmlns="http://www.w3.org/2000/svg" xmlns:xlink="http://www.w3.org/1999/xlink" width="500" zoomAndPan="magnify" viewBox="0 0 375 374.999991" height="500" preserveAspectRatio="xMidYMid meet" version="1.2"><defs><clipPath id="dd6f9c1476"><path d="M 175.125 18.75 L 286.5 18.75 L 286.5 131.25 L 175.125 131.25 Z M 175.125 18.75 "/></clipPath><clipPath id="ed824d1bd3"><path d="M 63.75 131.25 L 175.125 131.25 L 175.125 243.75 L 63.75 243.75 Z M 63.75 131.25 "/></clipPath><clipPath id="690380134a"><path d="M 175.125 243.75 L 286.5 243.75 L 286.5 356.25 L 175.125 356.25 Z M 175.125 243.75 "/></clipPath></defs><g id="2226d840f3"><rect x="0" width="375" y="0" height="374.999991" style="fill:#ffffff;fill-opacity:1;stroke:none;"/><rect x="0" width="375" y="0" height="374.999991" style="fill:#0e1525;fill-opacity:1;stroke:none;"/><g clip-rule="nonzero" clip-path="url(#dd6f9c1476)"><path style=" stroke:none;fill-rule:nonzero;fill:#10cb0f;fill-opacity:1;" d="M 175.125 18.75 L 286.5 18.75 L 286.5 131.429688 L 175.125 131.429688 Z M 175.125 18.75 "/></g><g clip-rule="nonzero" clip-path="url(#ed824d1bd3)"><path style=" stroke:none;fill-rule:nonzero;fill:#10cb0f;fill-opacity:1;" d="M 63.75 131.25 L 175.125 131.25 L 175.125 243.929688 L 63.75 243.929688 Z M 63.75 131.25 "/></g><g clip-rule="nonzero" clip-path="url(#690380134a)"><path style=" stroke:none;fill-rule:nonzero;fill:#10cb0f;fill-opacity:1;" d="M 175.125 243.75 L 286.5 243.75 L 286.5 356.429688 L 175.125 356.429688 Z M 175.125 243.75 "/></g></g></svg>